<?xml version="1.0" encoding="UTF-8"?>
<svg xmlns="http://www.w3.org/2000/svg" xmlns:xlink="http://www.w3.org/1999/xlink" width="200px" height="158px" viewBox="0 0 200 158" version="1.1">
<g id="surface1">
<path style=" stroke:none;fill-rule:evenodd;fill:rgb(85.098039%,85.098039%,85.098039%);fill-opacity:1;" d="M 128.828125 35.078125 C 128.761719 41.285156 128.792969 46.277344 128.894531 46.175781 C 128.992188 46.078125 129.046875 41 129.011719 34.894531 L 128.949219 23.796875 L 128.828125 35.078125 M 122.5 38.472656 C 122.621094 42.085938 122.714844 42.445312 122.757812 39.441406 C 122.78125 37.8125 122.71875 36.480469 122.617188 36.480469 C 122.519531 36.480469 122.464844 37.375 122.5 38.472656 M 97.558594 53.875 C 97.558594 55.535156 97.597656 56.214844 97.644531 55.382812 C 97.691406 54.554688 97.691406 53.195312 97.644531 52.363281 C 97.597656 51.535156 97.558594 52.214844 97.558594 53.875 M 97.46875 79.410156 C 97.402344 87.808594 97.429688 94.597656 97.527344 94.496094 C 97.628906 94.394531 97.683594 87.523438 97.648438 79.226562 L 97.585938 64.140625 L 97.46875 79.410156 M 91.195312 80.5 C 91.128906 86.4375 91.15625 91.214844 91.257812 91.113281 C 91.359375 91.011719 91.414062 86.152344 91.378906 80.3125 L 91.316406 69.699219 L 91.195312 80.5 M 67.632812 109.320312 C 67.632812 110.382812 67.675781 110.789062 67.726562 110.21875 C 67.777344 109.652344 67.777344 108.78125 67.726562 108.285156 C 67.675781 107.792969 67.632812 108.257812 67.632812 109.320312 M 50.613281 126 C 49.210938 126.445312 48.367188 127.476562 48 129.1875 C 47.828125 130 47.761719 133.410156 47.8125 139.078125 L 47.890625 147.730469 L 48.492188 148.800781 C 49.523438 150.621094 50.3125 150.875 55.007812 150.875 C 58.414062 150.875 59.117188 150.808594 59.894531 150.421875 C 60.96875 149.886719 61.605469 149.0625 61.972656 147.730469 C 62.300781 146.546875 62.335938 130.300781 62.011719 128.90625 C 61.738281 127.71875 61.101562 126.851562 60.046875 126.230469 C 59.335938 125.8125 58.730469 125.738281 55.488281 125.691406 C 52.699219 125.648438 51.460938 125.726562 50.613281 126 M 73.460938 125.851562 C 71.957031 126.214844 70.945312 127.113281 70.480469 128.5 C 70.320312 128.976562 70.203125 130.921875 70.203125 133.117188 C 70.203125 137.085938 70.394531 138.148438 71.265625 139.117188 C 72.203125 140.164062 73.082031 140.4375 75.996094 140.585938 L 78.769531 140.726562 L 78.769531 146.765625 L 75.390625 146.765625 L 75.269531 145.074219 L 75.152344 143.382812 L 72.679688 143.316406 L 70.203125 143.246094 L 70.203125 145.378906 C 70.203125 148.839844 71.191406 150.265625 73.945312 150.777344 C 75.820312 151.128906 80.429688 150.929688 81.5625 150.449219 C 83.601562 149.589844 84.023438 148.199219 83.914062 142.683594 C 83.839844 138.839844 83.796875 138.488281 83.269531 137.636719 C 82.375 136.199219 81.273438 135.773438 78.4375 135.773438 C 77.117188 135.773438 75.863281 135.707031 75.652344 135.628906 C 75.335938 135.503906 75.269531 135.015625 75.269531 132.753906 C 75.269531 129.707031 75.253906 129.734375 77.050781 129.734375 C 78.335938 129.734375 78.648438 130.050781 78.648438 131.351562 L 78.648438 132.390625 L 83.777344 132.390625 L 83.667969 130.492188 C 83.507812 127.714844 82.554688 126.351562 80.441406 125.859375 C 79.335938 125.601562 74.515625 125.597656 73.460938 125.851562 M 5.308594 138.308594 L 5.308594 150.511719 L 10.613281 150.511719 L 10.613281 140.847656 L 13.433594 140.847656 C 16.867188 140.847656 17.914062 140.460938 18.832031 138.855469 C 19.394531 137.875 19.421875 137.628906 19.421875 133.71875 C 19.421875 129.144531 19.339844 128.65625 18.40625 127.546875 C 17.285156 126.210938 16.746094 126.109375 10.742188 126.109375 L 5.308594 126.109375 L 5.308594 138.308594 M 26.296875 138.308594 L 26.296875 150.511719 L 31.605469 150.511719 L 31.605469 140.582031 L 33.113281 140.65625 L 34.621094 140.726562 L 34.683594 145.617188 L 34.75 150.511719 L 40.046875 150.511719 L 40.046875 145.136719 C 40.046875 140.183594 40.007812 139.699219 39.5625 138.964844 C 39.296875 138.53125 38.917969 138.109375 38.714844 138.035156 C 38.429688 137.921875 38.527344 137.699219 39.1875 136.96875 C 40.214844 135.832031 40.367188 135.066406 40.253906 131.609375 C 40.179688 129.25 40.089844 128.765625 39.585938 127.953125 C 38.554688 126.289062 37.835938 126.121094 31.664062 126.117188 L 26.296875 126.109375 L 26.296875 138.308594 M 91.433594 138.308594 L 91.433594 150.511719 L 96.742188 150.511719 L 96.742188 140.882812 L 99.984375 140.804688 C 103.703125 140.714844 104.183594 140.515625 105.125 138.667969 C 105.628906 137.6875 105.667969 137.28125 105.667969 133.480469 C 105.667969 129.679688 105.625 129.265625 105.125 128.273438 C 104.730469 127.488281 104.292969 127.050781 103.507812 126.652344 C 102.484375 126.136719 102.15625 126.109375 96.933594 126.109375 L 91.433594 126.109375 L 91.433594 138.308594 M 112.425781 138.308594 L 112.425781 150.511719 L 123.523438 150.511719 L 123.523438 146.160156 L 117.730469 146.160156 L 117.730469 140.363281 L 123.300781 140.363281 L 123.160156 136.136719 L 120.445312 136.066406 L 117.730469 136 L 117.730469 130.457031 L 123.523438 130.457031 L 123.523438 126.109375 L 112.425781 126.109375 L 112.425781 138.308594 M 130.761719 138.308594 L 130.761719 150.511719 L 136.066406 150.511719 L 136.066406 140.605469 L 137.609375 140.605469 C 138.792969 140.605469 139.1875 140.695312 139.296875 140.988281 C 139.378906 141.199219 139.445312 143.425781 139.445312 145.941406 L 139.445312 150.511719 L 144.800781 150.511719 L 144.710938 145.136719 C 144.613281 139.339844 144.425781 138.425781 143.261719 138.054688 C 142.738281 137.886719 142.738281 137.882812 143.386719 137.410156 C 144.585938 136.535156 144.859375 135.675781 144.867188 132.753906 C 144.871094 131.292969 144.785156 129.6875 144.679688 129.183594 C 144.425781 127.980469 143.242188 126.664062 142.140625 126.359375 C 141.652344 126.222656 138.894531 126.113281 136.007812 126.113281 L 130.761719 126.109375 L 130.761719 138.308594 M 152.472656 138.308594 L 152.472656 150.511719 L 157.539062 150.511719 L 157.539062 126.109375 L 152.472656 126.109375 L 152.472656 138.308594 M 164.292969 128.285156 L 164.292969 130.457031 L 168.15625 130.457031 L 168.15625 150.511719 L 173.457031 150.511719 L 173.519531 140.546875 L 173.582031 130.578125 L 175.574219 130.507812 L 177.5625 130.4375 L 177.5625 126.109375 L 164.292969 126.109375 L 164.292969 128.285156 M 185.050781 133.867188 L 187.695312 141.625 L 187.695312 150.511719 L 193.003906 150.511719 L 193.003906 141.402344 L 195.535156 133.863281 C 196.929688 129.714844 198.070312 126.269531 198.070312 126.207031 C 198.070312 126.144531 196.96875 126.125 195.621094 126.160156 L 193.171875 126.230469 L 191.820312 130.984375 C 191.074219 133.597656 190.40625 135.796875 190.332031 135.871094 C 190.257812 135.945312 189.566406 133.777344 188.796875 131.058594 L 187.390625 126.109375 L 182.40625 126.109375 L 185.050781 133.867188 M 53.367188 129.539062 C 53.152344 129.753906 53.074219 132.046875 53.074219 138.351562 C 53.074219 147.96875 52.949219 147.371094 55.007812 147.371094 C 57.0625 147.371094 56.9375 147.96875 56.9375 138.351562 C 56.9375 132.046875 56.859375 129.753906 56.648438 129.539062 C 56.488281 129.382812 55.75 129.25 55.007812 129.25 C 54.261719 129.25 53.523438 129.382812 53.367188 129.539062 M 10.613281 133.480469 L 10.613281 137.246094 L 12.363281 137.171875 L 14.113281 137.101562 L 14.113281 129.855469 L 12.363281 129.785156 L 10.613281 129.710938 L 10.613281 133.480469 M 31.605469 133.238281 L 31.605469 136.761719 L 33.234375 136.691406 L 34.859375 136.621094 L 34.859375 129.855469 L 33.234375 129.785156 L 31.605469 129.710938 L 31.605469 133.238281 M 96.742188 133.480469 L 96.742188 137.246094 L 98.492188 137.171875 L 100.242188 137.101562 L 100.242188 129.855469 L 98.492188 129.785156 L 96.742188 129.710938 L 96.742188 133.480469 M 136.066406 133.238281 L 136.066406 136.738281 L 137.730469 136.738281 C 139.023438 136.738281 139.425781 136.65625 139.539062 136.359375 C 139.621094 136.148438 139.6875 134.742188 139.6875 133.238281 C 139.6875 131.730469 139.621094 130.328125 139.539062 130.117188 C 139.425781 129.820312 139.023438 129.734375 137.730469 129.734375 L 136.066406 129.734375 L 136.066406 133.238281 "/>
<path style=" stroke:none;fill-rule:evenodd;fill:rgb(21.960784%,79.607843%,72.941176%);fill-opacity:1;" d="M 82.992188 15.011719 C 74.699219 19.820312 67.832031 23.871094 67.734375 24.015625 C 67.636719 24.160156 67.582031 40.359375 67.613281 60.007812 C 67.667969 93.019531 67.703125 95.757812 68.074219 95.992188 C 68.394531 96.195312 70.125 95.296875 76.878906 91.425781 L 85.285156 86.609375 L 85.402344 60.40625 L 85.523438 34.203125 L 88.300781 32.566406 C 89.824219 31.667969 91.15625 30.929688 91.253906 30.925781 C 91.355469 30.925781 91.433594 44.449219 91.433594 60.980469 L 91.433594 91.035156 L 79.914062 97.496094 C 73.578125 101.050781 68.269531 104.074219 68.113281 104.222656 C 67.808594 104.507812 67.539062 111.855469 67.832031 111.855469 C 68.15625 111.855469 90.601562 98.746094 90.953125 98.351562 C 91.152344 98.128906 92.699219 97.152344 94.390625 96.1875 L 97.464844 94.425781 L 97.527344 79.300781 L 97.585938 64.171875 L 102.171875 61.511719 C 104.691406 60.046875 111.695312 56.011719 117.730469 52.542969 L 128.710938 46.234375 L 128.773438 35.011719 L 128.835938 23.792969 L 113.882812 15.136719 C 105.660156 10.375 98.738281 6.4375 98.5 6.378906 C 98.242188 6.316406 92.0625 9.757812 82.992188 15.011719 M 86.582031 20.125 C 80.132812 23.871094 74.675781 27.085938 74.457031 27.269531 C 74.097656 27.574219 74.066406 29.964844 74.125 56.261719 C 74.195312 89.367188 73.820312 85.851562 77.082031 83.882812 L 79.011719 82.714844 L 79.132812 56.523438 L 79.253906 30.328125 L 88.300781 25.078125 C 93.273438 22.191406 97.578125 19.707031 97.859375 19.554688 C 98.3125 19.3125 99.539062 19.953125 108.34375 25.039062 C 113.828125 28.210938 118.570312 30.878906 118.886719 30.96875 C 119.3125 31.089844 119.894531 30.875 121.1875 30.113281 C 122.664062 29.246094 122.929688 28.984375 122.992188 28.367188 C 123.039062 27.894531 122.910156 27.507812 122.628906 27.265625 C 122.097656 26.8125 98.699219 13.28125 98.472656 13.300781 C 98.382812 13.304688 93.035156 16.375 86.582031 20.125 M 97.769531 26.734375 C 97.535156 26.828125 97.46875 28.746094 97.46875 35.171875 C 97.46875 39.746094 97.527344 43.484375 97.597656 43.484375 C 98.003906 43.484375 111.710938 35.355469 111.828125 35.046875 C 111.910156 34.828125 111.769531 34.511719 111.5 34.289062 C 110.8125 33.730469 98.496094 26.570312 98.265625 26.59375 C 98.15625 26.605469 97.933594 26.667969 97.769531 26.734375 M 110.496094 43.445312 C 103.925781 47.261719 98.308594 50.542969 98.007812 50.738281 C 97.496094 51.070312 97.46875 51.25 97.46875 53.960938 C 97.46875 56.578125 97.503906 56.820312 97.890625 56.707031 C 98.121094 56.640625 103.792969 53.386719 110.496094 49.476562 L 122.679688 42.367188 L 122.746094 39.425781 C 122.78125 37.804688 122.730469 36.484375 122.625 36.492188 C 122.519531 36.496094 117.0625 39.625 110.496094 43.445312 "/>
</g>
</svg>
