<svg xmlns="http://www.w3.org/2000/svg" width="829" height="654" viewBox="0 0 829 654" version="1.1"><path d="M 534 145.201 C 533.725 170.886, 533.842 191.559, 534.260 191.140 C 534.678 190.722, 534.903 169.707, 534.760 144.440 L 534.499 98.500 534 145.201 M 507.769 159.248 C 508.258 174.204, 508.648 175.684, 508.825 163.250 C 508.921 156.512, 508.663 150.999, 508.250 150.998 C 507.837 150.996, 507.621 154.709, 507.769 159.248 M 404.385 223 C 404.385 229.875, 404.545 232.688, 404.740 229.250 C 404.936 225.813, 404.936 220.188, 404.740 216.750 C 404.545 213.313, 404.385 216.125, 404.385 223 M 404 328.700 C 403.725 363.460, 403.841 391.560, 404.258 391.143 C 404.674 390.726, 404.899 362.286, 404.757 327.942 L 404.500 265.500 404 328.700 M 378 333.201 C 377.725 357.786, 377.842 377.559, 378.261 377.140 C 378.679 376.721, 378.904 356.606, 378.760 332.439 L 378.499 288.500 378 333.201 M 280.343 452.500 C 280.346 456.900, 280.522 458.576, 280.733 456.224 C 280.945 453.872, 280.942 450.272, 280.727 448.224 C 280.512 446.176, 280.339 448.100, 280.343 452.500 M 209.786 521.538 C 203.985 523.386, 200.481 527.659, 198.964 534.735 C 198.243 538.096, 197.973 552.209, 198.182 575.682 L 198.500 611.500 201 615.916 C 205.270 623.460, 208.542 624.500, 228 624.500 C 242.120 624.500, 245.044 624.230, 248.270 622.627 C 252.717 620.417, 255.356 617.007, 256.881 611.500 C 258.241 606.589, 258.381 539.347, 257.043 533.577 C 255.902 528.660, 253.264 525.073, 248.895 522.500 C 245.951 520.766, 243.441 520.469, 230 520.268 C 218.442 520.095, 213.301 520.418, 209.786 521.538 M 304.500 520.929 C 298.256 522.436, 294.061 526.158, 292.139 531.899 C 291.480 533.866, 291 541.916, 291 551 C 291 567.427, 291.779 571.836, 295.389 575.845 C 299.290 580.178, 302.921 581.302, 315 581.916 L 326.500 582.500 326.500 595 L 326.500 607.500 319.500 607.500 L 312.500 607.500 312 600.500 L 311.500 593.500 301.250 593.215 L 291 592.930 291 601.753 C 291 616.089, 295.087 621.985, 306.500 624.109 C 314.281 625.557, 333.375 624.737, 338.082 622.753 C 346.527 619.192, 348.271 613.437, 347.830 590.595 C 347.523 574.697, 347.335 573.235, 345.149 569.719 C 341.443 563.758, 336.882 562, 325.122 562 C 319.645 562, 314.452 561.727, 313.582 561.393 C 312.269 560.889, 312 558.869, 312 549.500 C 312 536.881, 311.930 537, 319.382 537 C 324.702 537, 326 538.314, 326 543.700 L 326 548 336.628 548 L 347.257 548 346.802 540.139 C 346.136 528.644, 342.194 522.992, 333.423 520.957 C 328.841 519.895, 308.867 519.875, 304.500 520.929 M 22 572.500 L 22 623 33 623 L 44 623 44 603 L 44 583 55.684 583 C 69.911 583, 74.259 581.398, 78.066 574.750 C 80.383 570.705, 80.500 569.680, 80.500 553.500 C 80.500 534.563, 80.167 532.541, 76.297 527.941 C 71.651 522.419, 69.409 522, 44.532 522 L 22 522 22 572.500 M 109 572.500 L 109 623 120 623 L 131 623 131 602.452 L 131 581.905 137.250 582.202 L 143.500 582.500 143.771 602.750 L 144.041 623 155.021 623 L 166 623 165.996 600.750 C 165.993 580.257, 165.834 578.241, 163.991 575.216 C 162.889 573.410, 161.310 571.672, 160.480 571.354 C 159.290 570.897, 159.702 569.965, 162.429 566.947 C 166.686 562.235, 167.315 559.080, 166.853 544.765 C 166.537 534.991, 166.172 532.988, 164.090 529.632 C 159.814 522.737, 156.835 522.047, 131.250 522.022 L 109 522 109 572.500 M 379 572.500 L 379 623 390 623 L 401 623 401 603.077 L 401 583.155 414.431 582.827 C 429.844 582.452, 431.845 581.621, 435.750 573.980 C 437.824 569.921, 438 568.237, 438 552.500 C 438 536.780, 437.821 535.069, 435.750 530.962 C 434.106 527.702, 432.298 525.894, 429.038 524.250 C 424.800 522.113, 423.432 522, 401.788 522 L 379 522 379 572.500 M 466 572.500 L 466 623 489 623 L 512 623 512 614 L 512 605 500 605 L 488 605 488 593 L 488 581 499.539 581 L 511.078 581 510.789 572.250 L 510.500 563.500 499.250 563.217 L 488 562.934 488 551.467 L 488 540 500 540 L 512 540 512 531 L 512 522 489 522 L 466 522 466 572.500 M 542 572.500 L 542 623 553 623 L 564 623 564 602.500 L 564 582 570.393 582 C 575.300 582, 576.927 582.368, 577.393 583.582 C 577.727 584.452, 578 593.677, 578 604.082 L 578 623 589.096 623 L 600.193 623 599.824 600.750 C 599.426 576.761, 598.651 572.976, 593.825 571.444 C 591.644 570.752, 591.648 570.732, 594.342 568.770 C 599.307 565.153, 600.441 561.587, 600.472 549.500 C 600.487 543.450, 600.140 536.803, 599.701 534.729 C 598.645 529.746, 593.741 524.300, 589.168 523.030 C 587.150 522.470, 575.712 522.009, 563.750 522.006 L 542 522 542 572.500 M 632 572.500 L 632 623 642.500 623 L 653 623 653 572.500 L 653 522 642.500 522 L 632 522 632 572.500 M 681 531 L 681 540 689 540 L 697 540 697 581.500 L 697 623 707.989 623 L 718.978 623 719.239 581.750 L 719.500 540.500 727.750 540.210 L 736 539.919 736 530.960 L 736 522 708.500 522 L 681 522 681 531 M 767.038 554.110 L 778 586.220 778 604.610 L 778 623 789 623 L 800 623 800 604.153 L 800 585.306 810.500 554.095 C 816.275 536.928, 821 522.668, 821 522.406 C 821 522.144, 816.431 522.058, 810.847 522.215 L 800.694 522.500 795.091 542.173 C 792.010 552.992, 789.238 562.096, 788.931 562.402 C 788.625 562.708, 785.756 553.743, 782.555 542.479 L 776.735 522 766.405 522 L 756.075 522 767.038 554.110 M 221.200 536.200 C 220.312 537.088, 220 546.570, 220 572.665 C 220 612.480, 219.468 610, 228 610 C 236.532 610, 236 612.480, 236 572.665 C 236 546.570, 235.688 537.088, 234.800 536.200 C 234.140 535.540, 231.080 535, 228 535 C 224.920 535, 221.860 535.540, 221.200 536.200 M 44 552.500 L 44 568.088 51.250 567.794 L 58.500 567.500 58.500 552.500 L 58.500 537.500 51.250 537.206 L 44 536.912 44 552.500 M 131 551.500 L 131 566.091 137.750 565.796 L 144.500 565.500 144.500 551.500 L 144.500 537.500 137.750 537.204 L 131 536.909 131 551.500 M 401 552.500 L 401 568.088 408.250 567.794 L 415.500 567.500 415.500 552.500 L 415.500 537.500 408.250 537.206 L 401 536.912 401 552.500 M 564 551.500 L 564 566 570.893 566 C 576.256 566, 577.921 565.649, 578.393 564.418 C 578.727 563.548, 579 557.735, 579 551.500 C 579 545.265, 578.727 539.452, 578.393 538.582 C 577.921 537.351, 576.256 537, 570.893 537 L 564 537 564 551.500" stroke="none" fill="#d9d9d9" fill-rule="evenodd"/><path d="M 344 62.144 C 309.625 82.035, 281.169 98.802, 280.763 99.405 C 280.358 100.007, 280.133 167.051, 280.263 248.391 C 280.482 385.027, 280.627 396.362, 282.162 397.331 C 283.498 398.173, 290.675 394.458, 318.662 378.440 L 353.500 358.500 354 250.040 L 354.500 141.581 366 134.807 C 372.325 131.081, 377.837 128.025, 378.250 128.016 C 378.663 128.007, 379 183.985, 379 252.410 L 379 376.820 331.250 403.560 C 304.988 418.267, 282.972 430.795, 282.326 431.400 C 281.067 432.581, 279.948 463.002, 281.164 463.001 C 282.505 462.999, 375.548 408.730, 377 407.103 C 377.825 406.179, 384.234 402.145, 391.243 398.140 L 403.985 390.859 404.243 328.239 L 404.500 265.619 423.500 254.610 C 433.950 248.556, 462.975 231.851, 488 217.490 L 533.500 191.378 533.760 144.927 L 534.019 98.477 472.043 62.654 C 437.956 42.951, 409.265 26.639, 408.284 26.404 C 407.211 26.148, 381.600 40.387, 344 62.144 M 358.884 83.298 C 332.145 98.809, 309.530 112.119, 308.630 112.876 C 307.127 114.138, 307.013 124.030, 307.246 232.876 C 307.539 369.918, 305.980 355.366, 319.500 347.210 L 327.500 342.384 328 233.959 L 328.500 125.534 366 103.808 C 386.625 91.859, 404.456 81.568, 405.624 80.940 C 407.499 79.931, 412.595 82.594, 449.081 103.648 C 471.814 116.767, 491.480 127.808, 492.783 128.184 C 494.556 128.696, 496.957 127.806, 502.326 124.646 C 508.436 121.051, 509.544 119.978, 509.799 117.411 C 509.992 115.461, 509.463 113.856, 508.299 112.862 C 506.096 110.982, 409.106 54.981, 408.169 55.048 C 407.801 55.075, 385.623 67.788, 358.884 83.298 M 405.250 110.662 C 404.284 111.052, 404 118.986, 404 145.583 C 404 164.512, 404.247 180, 404.548 180 C 406.226 180, 463.037 146.347, 463.530 145.060 C 463.872 144.170, 463.292 142.845, 462.160 141.928 C 459.311 139.622, 408.274 109.985, 407.312 110.079 C 406.865 110.122, 405.938 110.385, 405.250 110.662 M 458 179.824 C 430.775 195.626, 407.488 209.214, 406.250 210.018 C 404.125 211.400, 404 212.141, 404 223.357 C 404 234.194, 404.153 235.189, 405.750 234.728 C 406.712 234.450, 430.225 220.982, 458 204.799 L 508.500 175.375 508.781 163.187 C 508.935 156.484, 508.710 151.021, 508.281 151.046 C 507.851 151.072, 485.225 164.022, 458 179.824" stroke="none" fill="#38cbba" fill-rule="evenodd"/></svg>