<?xml version="1.0" encoding="UTF-8"?>
<svg xmlns="http://www.w3.org/2000/svg" xmlns:xlink="http://www.w3.org/1999/xlink" width="250px" height="250px" viewBox="0 0 250 250" version="1.1">
<g id="surface1">
<path style=" stroke:none;fill-rule:evenodd;fill:rgb(21.960784%,79.607843%,72.941176%);fill-opacity:1;" d="M 104.167969 43.308594 C 96.210938 47.914062 89.621094 51.796875 89.527344 51.9375 C 89.433594 52.082031 89.382812 67.605469 89.414062 86.433594 C 89.464844 118.0625 89.496094 120.6875 89.851562 120.910156 C 90.160156 121.105469 91.824219 120.246094 98.300781 116.535156 L 106.367188 111.921875 L 106.480469 86.820312 L 106.597656 61.71875 L 109.257812 60.152344 C 110.722656 59.289062 112 58.578125 112.09375 58.574219 C 112.308594 58.5625 112.320312 80.738281 112.113281 101.0625 L 111.957031 116.320312 L 100.828125 122.570312 L 89.699219 128.824219 L 89.546875 132.523438 C 89.460938 134.5625 89.414062 136.246094 89.433594 136.269531 C 89.527344 136.367188 111.726562 123.390625 112.082031 123.027344 C 112.300781 122.808594 113.707031 121.925781 115.207031 121.066406 L 117.941406 119.507812 L 118.054688 104.976562 L 118.171875 90.445312 L 126.414062 85.675781 C 130.949219 83.050781 137.6875 79.183594 141.394531 77.082031 L 148.132812 73.265625 L 148.148438 51.703125 L 133.761719 43.386719 C 125.847656 38.8125 119.207031 35.039062 119.003906 35.003906 C 118.800781 34.96875 112.125 38.707031 104.167969 43.308594 M 114.085938 44.519531 C 99.847656 52.710938 96.375 54.730469 96.007812 55.050781 C 95.621094 55.378906 95.601562 56.925781 95.660156 82.847656 C 95.726562 114.5625 95.367188 111.195312 98.496094 109.308594 L 100.347656 108.191406 L 100.464844 58.105469 L 101.332031 57.550781 C 104.324219 55.625 118.847656 47.441406 119.097656 47.539062 C 119.269531 47.601562 123.5 50.019531 128.503906 52.914062 C 133.507812 55.804688 137.925781 58.304688 138.320312 58.46875 C 138.992188 58.75 139.144531 58.707031 140.757812 57.792969 C 142.273438 56.933594 142.484375 56.730469 142.546875 56.082031 C 142.609375 55.453125 142.496094 55.269531 141.738281 54.777344 C 140.769531 54.148438 120.800781 42.597656 119.707031 42.03125 C 119.03125 41.679688 118.988281 41.699219 114.085938 44.519531 M 118.34375 54.550781 C 118.121094 54.640625 118.054688 56.476562 118.054688 62.636719 C 118.054688 67.015625 118.109375 70.601562 118.171875 70.601562 C 118.421875 70.601562 131.605469 62.890625 131.753906 62.65625 C 131.839844 62.519531 131.824219 62.246094 131.714844 62.050781 C 131.519531 61.695312 119.15625 54.378906 118.8125 54.417969 C 118.714844 54.425781 118.503906 54.488281 118.34375 54.550781 M 130.703125 70.476562 C 124.480469 74.085938 119.089844 77.257812 118.722656 77.53125 L 118.054688 78.023438 L 118.054688 80.679688 C 118.054688 82.136719 118.148438 83.332031 118.265625 83.332031 C 118.382812 83.332031 123.824219 80.222656 130.359375 76.417969 L 142.246094 69.507812 L 142.308594 66.699219 C 142.347656 65.152344 142.292969 63.894531 142.195312 63.902344 C 142.09375 63.914062 136.921875 66.871094 130.703125 70.476562 "/>
</g>
</svg>
