<?xml version="1.0" encoding="UTF-8"?>
<!DOCTYPE svg PUBLIC "-//W3C//DTD SVG 1.1//EN" "http://www.w3.org/Graphics/SVG/1.1/DTD/svg11.dtd">
<svg xmlns="http://www.w3.org/2000/svg" version="1.1" width="1080px" height="1080px" style="shape-rendering:geometricPrecision; text-rendering:geometricPrecision; image-rendering:optimizeQuality; fill-rule:evenodd; clip-rule:evenodd" xmlns:xlink="http://www.w3.org/1999/xlink">
<g><path style="opacity:1" fill="#000d0e" d="M -0.5,-0.5 C 359.5,-0.5 719.5,-0.5 1079.5,-0.5C 1079.5,359.5 1079.5,719.5 1079.5,1079.5C 719.5,1079.5 359.5,1079.5 -0.5,1079.5C -0.5,719.5 -0.5,359.5 -0.5,-0.5 Z"/></g>
<g><path style="opacity:1" fill="#2bb8d2" d="M 639.5,315.5 C 639.5,300.167 639.5,284.833 639.5,269.5C 639.5,262.833 639.5,256.167 639.5,249.5C 639.5,246.167 639.5,242.833 639.5,239.5C 640.006,235.993 639.34,232.826 637.5,230C 592.473,205.488 547.473,180.988 502.5,156.5C 506.189,152.985 510.522,151.151 515.5,151C 557.082,175.04 598.582,199.207 640,223.5C 640.831,254.336 640.664,285.003 639.5,315.5 Z"/></g>
<g><path style="opacity:1" fill="#2fc2d8" d="M 502.5,156.5 C 547.473,180.988 592.473,205.488 637.5,230C 639.34,232.826 640.006,235.993 639.5,239.5C 591.171,213.671 543.171,187.338 495.5,160.5C 497.336,158.412 499.669,157.079 502.5,156.5 Z"/></g>
<g><path style="opacity:1" fill="#32c3d3" d="M 495.5,160.5 C 543.171,187.338 591.171,213.671 639.5,239.5C 639.5,242.833 639.5,246.167 639.5,249.5C 630.86,244.846 622.194,240.179 613.5,235.5C 612.893,235.624 612.56,235.957 612.5,236.5C 580.194,217.678 547.861,198.845 515.5,180C 514.072,179.421 512.738,179.588 511.5,180.5C 503.436,174.8 494.769,170.133 485.5,166.5C 488.494,164 491.827,162 495.5,160.5 Z"/></g>
<g><path style="opacity:1" fill="#38c8ce" d="M 485.5,166.5 C 494.769,170.133 503.436,174.8 511.5,180.5C 505.83,184.337 499.83,187.67 493.5,190.5C 485.16,185.328 476.493,180.662 467.5,176.5C 473.17,172.663 479.17,169.33 485.5,166.5 Z"/></g>
<g><path style="opacity:1" fill="#39c9c8" d="M 467.5,176.5 C 476.493,180.662 485.16,185.328 493.5,190.5C 480.334,199.253 466.667,207.253 452.5,214.5C 444.16,209.328 435.493,204.662 426.5,200.5C 439.666,191.747 453.333,183.747 467.5,176.5 Z"/></g>
<g><path style="opacity:1" fill="#000e0f" d="M 612.5,236.5 C 615.332,238.407 616.166,241.073 615,244.5C 611.349,246.733 607.849,249.066 604.5,251.5C 600.265,253.073 596.265,252.573 592.5,250C 566.065,234.7 539.565,219.533 513,204.5C 500.206,211.475 487.706,218.808 475.5,226.5C 463.337,232.411 451.67,239.078 440.5,246.5C 438.139,247.435 435.972,248.768 434,250.5C 433.5,261.495 433.333,272.495 433.5,283.5C 433.5,295.833 433.5,308.167 433.5,320.5C 433.5,334.5 433.5,348.5 433.5,362.5C 433.5,374.5 433.5,386.5 433.5,398.5C 433.667,421.169 433.5,443.836 433,466.5C 427.833,469.667 422.667,472.833 417.5,476C 416.167,476.667 414.833,476.667 413.5,476C 412.505,446.24 412.171,416.407 412.5,386.5C 412.5,374.5 412.5,362.5 412.5,350.5C 412.5,336.5 412.5,322.5 412.5,308.5C 412.5,296.167 412.5,283.833 412.5,271.5C 412.333,260.495 412.5,249.495 413,238.5C 414.145,237.364 415.312,236.364 416.5,235.5C 428.864,228.99 440.864,221.99 452.5,214.5C 466.667,207.253 480.334,199.253 493.5,190.5C 499.83,187.67 505.83,184.337 511.5,180.5C 512.738,179.588 514.072,179.421 515.5,180C 547.861,198.845 580.194,217.678 612.5,236.5 Z"/></g>
<g><path style="opacity:1" fill="#38cac2" d="M 426.5,200.5 C 435.493,204.662 444.16,209.328 452.5,214.5C 440.864,221.99 428.864,228.99 416.5,235.5C 415.358,233.567 413.692,232.067 411.5,231C 404.964,227.232 398.298,223.732 391.5,220.5C 402.67,213.078 414.337,206.411 426.5,200.5 Z"/></g>
<g><path style="opacity:1" fill="#3acac9" d="M 604.5,251.5 C 616.323,257.245 627.99,263.245 639.5,269.5C 639.5,284.833 639.5,300.167 639.5,315.5C 639.5,316.167 639.167,316.5 638.5,316.5C 629.991,310.743 620.991,305.743 611.5,301.5C 612.167,300.833 612.833,300.167 613.5,299.5C 614.82,291.657 614.82,283.657 613.5,275.5C 612.893,275.624 612.56,275.957 612.5,276.5C 604.671,280.58 597.004,284.913 589.5,289.5C 580.833,284.5 572.167,279.5 563.5,274.5C 564.406,273.035 565.739,272.035 567.5,271.5C 568.76,269.647 568.76,267.814 567.5,266C 549.669,255.919 532.002,245.586 514.5,235C 513.101,234.405 511.768,234.572 510.5,235.5C 509.516,238.428 509.183,241.428 509.5,244.5C 497.877,239.022 486.544,233.022 475.5,226.5C 487.706,218.808 500.206,211.475 513,204.5C 539.565,219.533 566.065,234.7 592.5,250C 596.265,252.573 600.265,253.073 604.5,251.5 Z"/></g>
<g><path style="opacity:1" fill="#38ccbe" d="M 391.5,220.5 C 398.298,223.732 404.964,227.232 411.5,231C 413.692,232.067 415.358,233.567 416.5,235.5C 415.312,236.364 414.145,237.364 413,238.5C 412.5,249.495 412.333,260.495 412.5,271.5C 403.833,266.833 395.167,262.167 386.5,257.5C 386.5,246.167 386.5,234.833 386.5,223.5C 387.899,222.11 389.566,221.11 391.5,220.5 Z"/></g>
<g><path style="opacity:1" fill="#39cbc3" d="M 475.5,226.5 C 486.544,233.022 497.877,239.022 509.5,244.5C 509.5,257.833 509.5,271.167 509.5,284.5C 501.036,280.435 492.703,276.101 484.5,271.5C 484.83,265.132 484.496,258.798 483.5,252.5C 482.893,252.624 482.56,252.957 482.5,253.5C 477.184,256.472 471.85,259.472 466.5,262.5C 466.047,261.542 465.381,260.708 464.5,260C 456.276,255.726 448.276,251.226 440.5,246.5C 451.67,239.078 463.337,232.411 475.5,226.5 Z"/></g>
<g><path style="opacity:1" fill="#000e0f" d="M 563.5,274.5 C 550.905,281.108 538.572,288.108 526.5,295.5C 521.184,298.472 515.85,301.472 510.5,304.5C 509.503,297.866 509.17,291.2 509.5,284.5C 509.5,271.167 509.5,257.833 509.5,244.5C 509.183,241.428 509.516,238.428 510.5,235.5C 511.768,234.572 513.101,234.405 514.5,235C 532.002,245.586 549.669,255.919 567.5,266C 568.76,267.814 568.76,269.647 567.5,271.5C 565.739,272.035 564.406,273.035 563.5,274.5 Z"/></g>
<g><path style="opacity:1" fill="#38ccbe" d="M 440.5,246.5 C 448.276,251.226 456.276,255.726 464.5,260C 465.381,260.708 466.047,261.542 466.5,262.5C 464.219,263.608 462.052,264.942 460,266.5C 459.5,276.494 459.334,286.494 459.5,296.5C 450.833,292.167 442.167,287.833 433.5,283.5C 433.333,272.495 433.5,261.495 434,250.5C 435.972,248.768 438.139,247.435 440.5,246.5 Z"/></g>
<g><path style="opacity:1" fill="#39c9d0" d="M 612.5,236.5 C 612.56,235.957 612.893,235.624 613.5,235.5C 622.194,240.179 630.86,244.846 639.5,249.5C 639.5,256.167 639.5,262.833 639.5,269.5C 627.99,263.245 616.323,257.245 604.5,251.5C 607.849,249.066 611.349,246.733 615,244.5C 616.166,241.073 615.332,238.407 612.5,236.5 Z"/></g>
<g><path style="opacity:1" fill="#082a28" d="M 482.5,253.5 C 482.56,252.957 482.893,252.624 483.5,252.5C 484.496,258.798 484.83,265.132 484.5,271.5C 484.5,284.833 484.5,298.167 484.5,311.5C 484.5,323.833 484.5,336.167 484.5,348.5C 484.5,362.5 484.5,376.5 484.5,390.5C 484.825,398.352 484.492,406.018 483.5,413.5C 483.832,359.997 483.499,306.664 482.5,253.5 Z"/></g>
<g><path style="opacity:1" fill="#37cdb8" d="M 386.5,257.5 C 395.167,262.167 403.833,266.833 412.5,271.5C 412.5,283.833 412.5,296.167 412.5,308.5C 404.063,304.447 395.73,300.114 387.5,295.5C 386.501,282.851 386.168,270.184 386.5,257.5 Z"/></g>
<g><path style="opacity:1" fill="#38ccbd" d="M 484.5,271.5 C 492.703,276.101 501.036,280.435 509.5,284.5C 509.17,291.2 509.503,297.866 510.5,304.5C 515.85,301.472 521.184,298.472 526.5,295.5C 535.937,299.384 544.937,304.051 553.5,309.5C 542.035,316.737 530.368,323.737 518.5,330.5C 507.682,323.373 496.349,317.04 484.5,311.5C 484.5,298.167 484.5,284.833 484.5,271.5 Z"/></g>
<g><path style="opacity:1" fill="#38cac2" d="M 563.5,274.5 C 572.167,279.5 580.833,284.5 589.5,289.5C 577.795,296.686 565.795,303.353 553.5,309.5C 544.937,304.051 535.937,299.384 526.5,295.5C 538.572,288.108 550.905,281.108 563.5,274.5 Z"/></g>
<g><path style="opacity:1" fill="#1b6868" d="M 612.5,276.5 C 612.56,275.957 612.893,275.624 613.5,275.5C 614.82,283.657 614.82,291.657 613.5,299.5C 613.825,291.648 613.492,283.982 612.5,276.5 Z"/></g>
<g><path style="opacity:1" fill="#010f0f" d="M 612.5,276.5 C 613.492,283.982 613.825,291.648 613.5,299.5C 612.833,300.167 612.167,300.833 611.5,301.5C 599.802,307.677 588.469,314.344 577.5,321.5C 565.164,327.999 553.164,334.999 541.5,342.5C 531.146,347.762 520.979,353.429 511,359.5C 510.333,351.5 510.333,343.5 511,335.5C 513.382,333.611 515.882,331.945 518.5,330.5C 530.368,323.737 542.035,316.737 553.5,309.5C 565.795,303.353 577.795,296.686 589.5,289.5C 597.004,284.913 604.671,280.58 612.5,276.5 Z"/></g>
<g><path style="opacity:1" fill="#37cdb8" d="M 433.5,283.5 C 442.167,287.833 450.833,292.167 459.5,296.5C 459.5,309.167 459.5,321.833 459.5,334.5C 450.833,329.833 442.167,325.167 433.5,320.5C 433.5,308.167 433.5,295.833 433.5,283.5 Z"/></g>
<g><path style="opacity:1" fill="#33c2a7" d="M 386.5,223.5 C 386.5,234.833 386.5,246.167 386.5,257.5C 386.168,270.184 386.501,282.851 387.5,295.5C 395.73,300.114 404.063,304.447 412.5,308.5C 412.5,322.5 412.5,336.5 412.5,350.5C 403.947,345.973 395.447,341.306 387,336.5C 386.5,348.495 386.333,360.495 386.5,372.5C 386.5,422.167 386.5,471.833 386.5,521.5C 385.167,422.167 385.167,322.833 386.5,223.5 Z"/></g>
<g><path style="opacity:1" fill="#39cac2" d="M 611.5,301.5 C 620.991,305.743 629.991,310.743 638.5,316.5C 626.473,323.179 614.473,329.845 602.5,336.5C 594.001,331.752 585.668,326.752 577.5,321.5C 588.469,314.344 599.802,307.677 611.5,301.5 Z"/></g>
<g><path style="opacity:1" fill="#37cab6" d="M 484.5,311.5 C 496.349,317.04 507.682,323.373 518.5,330.5C 515.882,331.945 513.382,333.611 511,335.5C 510.333,343.5 510.333,351.5 511,359.5C 520.979,353.429 531.146,347.762 541.5,342.5C 548.941,346.103 556.274,349.936 563.5,354C 565.063,354.759 566.063,355.926 566.5,357.5C 555.663,364.086 544.663,370.419 533.5,376.5C 517.69,366.423 501.357,357.09 484.5,348.5C 484.5,336.167 484.5,323.833 484.5,311.5 Z"/></g>
<g><path style="opacity:1" fill="#36cdb2" d="M 433.5,320.5 C 442.167,325.167 450.833,329.833 459.5,334.5C 459.5,348.5 459.5,362.5 459.5,376.5C 450.833,371.833 442.167,367.167 433.5,362.5C 433.5,348.5 433.5,334.5 433.5,320.5 Z"/></g>
<g><path style="opacity:1" fill="#38cabc" d="M 577.5,321.5 C 585.668,326.752 594.001,331.752 602.5,336.5C 590.535,343.485 578.535,350.485 566.5,357.5C 566.063,355.926 565.063,354.759 563.5,354C 556.274,349.936 548.941,346.103 541.5,342.5C 553.164,334.999 565.164,327.999 577.5,321.5 Z"/></g>
<g><path style="opacity:1" fill="#35cdab" d="M 412.5,350.5 C 412.5,362.5 412.5,374.5 412.5,386.5C 403.833,381.833 395.167,377.167 386.5,372.5C 386.333,360.495 386.5,348.495 387,336.5C 395.447,341.306 403.947,345.973 412.5,350.5 Z"/></g>
<g><path style="opacity:1" fill="#36ccb1" d="M 484.5,348.5 C 501.357,357.09 517.69,366.423 533.5,376.5C 525.631,380.93 517.964,385.597 510.5,390.5C 509.834,394.684 509.167,399.018 508.5,403.5C 500.473,399.154 492.473,394.821 484.5,390.5C 484.5,376.5 484.5,362.5 484.5,348.5 Z"/></g>
<g><path style="opacity:1" fill="#35cdab" d="M 433.5,362.5 C 442.167,367.167 450.833,371.833 459.5,376.5C 459.5,388.5 459.5,400.5 459.5,412.5C 450.806,407.821 442.14,403.154 433.5,398.5C 433.5,386.5 433.5,374.5 433.5,362.5 Z"/></g>
<g><path style="opacity:1" fill="#30bb9c" d="M 484.5,390.5 C 492.473,394.821 500.473,399.154 508.5,403.5C 509.167,399.018 509.834,394.684 510.5,390.5C 510.832,432.337 510.499,474.003 509.5,515.5C 509.667,490.164 509.5,464.831 509,439.5C 501.247,435.04 493.414,430.706 485.5,426.5C 484.833,451.663 484.167,476.663 483.5,501.5C 483.5,472.167 483.5,442.833 483.5,413.5C 484.492,406.018 484.825,398.352 484.5,390.5 Z"/></g>
<g><path style="opacity:1" fill="#34cda1" d="M 386.5,372.5 C 395.167,377.167 403.833,381.833 412.5,386.5C 412.171,416.407 412.505,446.24 413.5,476C 414.833,476.667 416.167,476.667 417.5,476C 422.667,472.833 427.833,469.667 433,466.5C 433.5,443.836 433.667,421.169 433.5,398.5C 442.14,403.154 450.806,407.821 459.5,412.5C 459.667,435.836 459.5,459.169 459,482.5C 436.746,496.045 414.246,509.212 391.5,522C 389.735,522.64 388.068,522.473 386.5,521.5C 386.5,471.833 386.5,422.167 386.5,372.5 Z"/></g>
<g><path style="opacity:1" fill="#33cca0" d="M 509.5,515.5 C 469.22,539.98 428.553,563.98 387.5,587.5C 386.508,579.684 386.174,571.684 386.5,563.5C 386.187,560.753 386.52,558.086 387.5,555.5C 419.527,537.488 451.527,519.488 483.5,501.5C 484.167,476.663 484.833,451.663 485.5,426.5C 493.414,430.706 501.247,435.04 509,439.5C 509.5,464.831 509.667,490.164 509.5,515.5 Z"/></g>
<g><path style="opacity:1" fill="#155b4a" d="M 386.5,563.5 C 386.174,571.684 386.508,579.684 387.5,587.5C 387.44,588.043 387.107,588.376 386.5,588.5C 385.179,580.009 385.179,571.676 386.5,563.5 Z"/></g>
<g><path style="opacity:1" fill="#d5d5d5" d="M 317.5,644.5 C 328.172,644.333 338.839,644.5 349.5,645C 356.667,646.833 361.167,651.333 363,658.5C 363.667,683.833 363.667,709.167 363,734.5C 361.5,742.667 356.667,747.5 348.5,749C 337.108,749.909 325.775,749.576 314.5,748C 308.726,745.293 305.226,740.793 304,734.5C 303.333,709.5 303.333,684.5 304,659.5C 305.573,651.765 310.073,646.765 317.5,644.5 Z"/></g>
<g><path style="opacity:1" fill="#d5d5d5" d="M 396.5,718.5 C 403.167,718.5 409.833,718.5 416.5,718.5C 416.183,722.702 416.517,726.702 417.5,730.5C 417.611,731.117 417.944,731.617 418.5,732C 423.087,732.799 427.587,732.632 432,731.5C 432.667,723.5 432.667,715.5 432,707.5C 424.579,706.684 417.079,706.184 409.5,706C 403.333,703.833 399.167,699.667 397,693.5C 396.333,681.5 396.333,669.5 397,657.5C 399.167,651.333 403.333,647.167 409.5,645C 420.24,644.072 430.907,644.405 441.5,646C 446,647.833 449.167,651 451,655.5C 452.351,661.072 452.851,666.738 452.5,672.5C 445.5,672.5 438.5,672.5 431.5,672.5C 433.138,661.985 428.805,658.485 418.5,662C 417.353,669.42 417.187,676.92 418,684.5C 426.889,684.95 435.723,686.117 444.5,688C 449.149,690.455 451.983,694.288 453,699.5C 453.667,711.167 453.667,722.833 453,734.5C 451.614,742.22 447.114,747.053 439.5,749C 428.76,749.928 418.093,749.595 407.5,748C 402.243,745.744 398.743,741.91 397,736.5C 396.501,730.509 396.334,724.509 396.5,718.5 Z"/></g>
<g><path style="opacity:1" fill="#d7d7d7" d="M 127.5,646.5 C 143.17,646.333 158.837,646.5 174.5,647C 179.394,648.686 182.894,651.853 185,656.5C 186.604,668.429 186.937,680.429 186,692.5C 185.142,699.727 181.308,704.56 174.5,707C 166.173,707.5 157.84,707.666 149.5,707.5C 149.5,720.833 149.5,734.167 149.5,747.5C 142.167,747.5 134.833,747.5 127.5,747.5C 127.5,713.833 127.5,680.167 127.5,646.5 Z"/></g>
<g><path style="opacity:1" fill="#d6d6d6" d="M 214.5,646.5 C 229.837,646.333 245.17,646.5 260.5,647C 266.767,648.934 270.601,653.1 272,659.5C 272.667,668.167 272.667,676.833 272,685.5C 270.897,689.73 268.397,692.73 264.5,694.5C 267.19,696.356 269.356,698.689 271,701.5C 271.5,716.83 271.667,732.163 271.5,747.5C 264.167,747.5 256.833,747.5 249.5,747.5C 249.667,734.163 249.5,720.829 249,707.5C 244.934,706.536 240.767,706.203 236.5,706.5C 236.5,720.167 236.5,733.833 236.5,747.5C 229.167,747.5 221.833,747.5 214.5,747.5C 214.5,713.833 214.5,680.167 214.5,646.5 Z"/></g>
<g><path style="opacity:1" fill="#d5d5d5" d="M 527.5,707.5 C 520.5,707.5 513.5,707.5 506.5,707.5C 506.5,720.833 506.5,734.167 506.5,747.5C 499.167,747.5 491.833,747.5 484.5,747.5C 484.5,713.833 484.5,680.167 484.5,646.5C 500.17,646.333 515.837,646.5 531.5,647C 537.36,648.859 541.193,652.693 543,658.5C 543.667,670.833 543.667,683.167 543,695.5C 540.591,703.077 535.424,707.077 527.5,707.5 Z"/></g>
<g><path style="opacity:1" fill="#d5d5d5" d="M 617.5,646.5 C 617.5,652.167 617.5,657.833 617.5,663.5C 609.316,663.174 601.316,663.508 593.5,664.5C 593.5,672.167 593.5,679.833 593.5,687.5C 601.167,687.5 608.833,687.5 616.5,687.5C 616.5,693.5 616.5,699.5 616.5,705.5C 609.167,705.5 601.833,705.5 594.5,705.5C 593.508,713.316 593.174,721.316 593.5,729.5C 601.5,729.5 609.5,729.5 617.5,729.5C 618.49,735.31 618.823,741.31 618.5,747.5C 602.833,747.5 587.167,747.5 571.5,747.5C 571.5,713.833 571.5,680.167 571.5,646.5C 586.833,646.5 602.167,646.5 617.5,646.5 Z"/></g>
<g><path style="opacity:1" fill="#d5d5d5" d="M 647.5,646.5 C 662.837,646.333 678.17,646.5 693.5,647C 700.517,649.352 704.684,654.185 706,661.5C 706.667,668.5 706.667,675.5 706,682.5C 705.27,688.136 702.436,692.303 697.5,695C 701.742,696.245 704.242,699.078 705,703.5C 705.5,718.163 705.667,732.83 705.5,747.5C 698.167,747.5 690.833,747.5 683.5,747.5C 683.667,734.163 683.5,720.829 683,707.5C 678.599,706.533 674.099,706.2 669.5,706.5C 669.5,720.167 669.5,733.833 669.5,747.5C 662.167,747.5 654.833,747.5 647.5,747.5C 647.5,713.833 647.5,680.167 647.5,646.5 Z"/></g>
<g><path style="opacity:1" fill="#cfd0d0" d="M 736.5,646.5 C 744.167,646.5 751.833,646.5 759.5,646.5C 759.5,680.167 759.5,713.833 759.5,747.5C 751.833,747.5 744.167,747.5 736.5,747.5C 736.5,713.833 736.5,680.167 736.5,646.5 Z"/></g>
<g><path style="opacity:1" fill="#d8d8d8" d="M 841.5,664.5 C 835.833,664.5 830.167,664.5 824.5,664.5C 824.5,692.167 824.5,719.833 824.5,747.5C 817.5,747.5 810.5,747.5 803.5,747.5C 803.5,719.833 803.5,692.167 803.5,664.5C 797.833,664.5 792.167,664.5 786.5,664.5C 786.5,658.5 786.5,652.5 786.5,646.5C 804.833,646.5 823.167,646.5 841.5,646.5C 841.5,652.5 841.5,658.5 841.5,664.5 Z"/></g>
<g><path style="opacity:1" fill="#d6d6d6" d="M 861.5,647.5 C 868.344,646.181 875.344,646.181 882.5,647.5C 886.487,660.449 890.321,673.449 894,686.5C 898.539,673.382 902.372,660.049 905.5,646.5C 912.532,646.17 919.532,646.503 926.5,647.5C 919.568,667.796 912.735,688.13 906,708.5C 905.5,721.496 905.333,734.496 905.5,747.5C 898.167,747.5 890.833,747.5 883.5,747.5C 883.667,734.829 883.5,722.162 883,709.5C 876.295,688.548 869.129,667.881 861.5,647.5 Z"/></g>
<g><path style="opacity:1" fill="#051112" d="M 327.5,659.5 C 331.514,659.334 335.514,659.501 339.5,660C 340,660.5 340.5,661 341,661.5C 341.827,685.406 341.66,709.239 340.5,733C 335.581,733.802 330.748,733.635 326,732.5C 325.333,708.833 325.333,685.167 326,661.5C 326.717,660.956 327.217,660.289 327.5,659.5 Z"/></g>
<g><path style="opacity:1" fill="#010e0f" d="M 149.5,661.5 C 154.43,661.197 159.263,661.531 164,662.5C 164.667,672.167 164.667,681.833 164,691.5C 159.263,692.469 154.43,692.803 149.5,692.5C 149.5,682.167 149.5,671.833 149.5,661.5 Z"/></g>
<g><path style="opacity:1" fill="#000d0e" d="M 236.5,661.5 C 241.099,661.2 245.599,661.533 250,662.5C 250.667,671.5 250.667,680.5 250,689.5C 245.599,690.467 241.099,690.8 236.5,690.5C 236.5,680.833 236.5,671.167 236.5,661.5 Z"/></g>
<g><path style="opacity:1" fill="#071213" d="M 506.5,661.5 C 511.43,661.197 516.263,661.531 521,662.5C 521.667,672.167 521.667,681.833 521,691.5C 516.263,692.469 511.43,692.803 506.5,692.5C 506.5,682.167 506.5,671.833 506.5,661.5 Z"/></g>
<g><path style="opacity:1" fill="#0b1515" d="M 669.5,661.5 C 674.179,661.334 678.845,661.501 683.5,662C 684.823,671.137 684.823,680.303 683.5,689.5C 678.88,690.493 674.214,690.827 669.5,690.5C 669.5,680.833 669.5,671.167 669.5,661.5 Z"/></g>
<g><path style="opacity:1" fill="#898e8e" d="M 617.5,646.5 C 618.49,652.31 618.823,658.31 618.5,664.5C 610.167,664.5 601.833,664.5 593.5,664.5C 601.316,663.508 609.316,663.174 617.5,663.5C 617.5,657.833 617.5,652.167 617.5,646.5 Z"/></g>
<g><path style="opacity:1" fill="#7d8282" d="M 786.5,664.5 C 792.167,664.5 797.833,664.5 803.5,664.5C 803.5,692.167 803.5,719.833 803.5,747.5C 802.502,720.338 802.169,693.005 802.5,665.5C 796.974,665.821 791.64,665.488 786.5,664.5 Z"/></g>
<g><path style="opacity:1" fill="#575e5f" d="M 841.5,664.5 C 836.36,665.488 831.026,665.821 825.5,665.5C 825.831,693.005 825.498,720.338 824.5,747.5C 824.5,719.833 824.5,692.167 824.5,664.5C 830.167,664.5 835.833,664.5 841.5,664.5 Z"/></g>
<g><path style="opacity:1" fill="#4b5354" d="M 527.5,707.5 C 521.021,708.491 514.354,708.824 507.5,708.5C 507.829,721.677 507.495,734.677 506.5,747.5C 506.5,734.167 506.5,720.833 506.5,707.5C 513.5,707.5 520.5,707.5 527.5,707.5 Z"/></g>
<g><path style="opacity:1" fill="#84898a" d="M 396.5,718.5 C 403.313,717.509 410.313,717.175 417.5,717.5C 417.5,721.833 417.5,726.167 417.5,730.5C 416.517,726.702 416.183,722.702 416.5,718.5C 409.833,718.5 403.167,718.5 396.5,718.5 Z"/></g>
<g><path style="opacity:1" fill="#2b3536" d="M 594.5,705.5 C 594.5,713.167 594.5,720.833 594.5,728.5C 602.352,728.175 610.018,728.508 617.5,729.5C 609.5,729.5 601.5,729.5 593.5,729.5C 593.174,721.316 593.508,713.316 594.5,705.5 Z"/></g>
</svg>
