<svg xmlns="http://www.w3.org/2000/svg" width="1080" height="1080" viewBox="0 0 1080 1080" version="1.1"><path d="M 450 187.097 C 415.625 206.981, 387.169 223.756, 386.763 224.375 C 386.358 224.994, 386.133 292.051, 386.263 373.391 C 386.482 510.027, 386.627 521.362, 388.162 522.331 C 389.498 523.173, 396.675 519.458, 424.662 503.440 L 459.500 483.500 460 375.066 L 460.500 266.632 472 259.858 C 478.325 256.132, 483.837 253.065, 484.250 253.042 C 485.181 252.990, 485.223 348.790, 484.330 436.585 L 483.659 502.500 435.580 529.509 L 387.500 556.518 386.842 572.509 C 386.479 581.304, 386.261 588.581, 386.355 588.681 C 386.762 589.106, 482.661 533.043, 484.201 531.479 C 485.137 530.530, 491.212 526.718, 497.701 523.009 L 509.500 516.266 510 453.494 L 510.500 390.723 546.110 370.111 C 565.695 358.775, 594.817 342.075, 610.824 333 L 639.929 316.500 639.964 269.932 L 640 223.363 577.852 187.432 C 543.670 167.669, 514.982 151.375, 514.102 151.222 C 513.221 151.070, 484.375 167.213, 450 187.097 M 492.850 192.331 C 431.339 227.707, 416.346 236.437, 414.746 237.811 C 413.089 239.233, 413.006 245.918, 413.246 357.909 C 413.539 494.913, 411.980 480.366, 425.500 472.210 L 433.500 467.384 433.754 359.203 L 434.009 251.022 437.754 248.614 C 450.682 240.301, 513.424 204.949, 514.509 205.365 C 515.236 205.644, 533.520 216.091, 555.141 228.581 C 576.762 241.072, 595.844 251.872, 597.545 252.583 C 600.444 253.795, 601.104 253.612, 608.069 249.664 C 614.613 245.955, 615.537 245.074, 615.809 242.280 C 616.075 239.554, 615.582 238.759, 612.309 236.638 C 608.129 233.928, 521.866 184.016, 517.136 181.570 C 514.223 180.064, 514.031 180.149, 492.850 192.331 M 511.250 235.662 C 510.284 236.052, 510 243.986, 510 270.583 C 510 289.512, 510.228 305, 510.506 305 C 511.587 305, 568.539 271.684, 569.180 270.676 C 569.554 270.089, 569.476 268.909, 569.006 268.054 C 568.165 266.524, 514.747 234.925, 513.263 235.079 C 512.843 235.122, 511.938 235.385, 511.250 235.662 M 564.632 304.464 C 537.755 320.048, 514.467 333.757, 512.882 334.929 L 510 337.060 510 348.530 C 510 354.838, 510.408 360, 510.907 360 C 511.406 360, 534.919 346.560, 563.157 330.134 L 614.500 300.267 614.781 288.134 C 614.935 281.460, 614.710 276.029, 614.281 276.065 C 613.851 276.101, 591.509 288.880, 564.632 304.464" stroke="none" fill="#38cbba" fill-rule="evenodd"/></svg>