<?xml version="1.0" encoding="UTF-8"?>
<svg xmlns="http://www.w3.org/2000/svg" xmlns:xlink="http://www.w3.org/1999/xlink" width="500px" height="500px" viewBox="0 0 500 500" version="1.1">
<g id="surface1">
<path style=" stroke:none;fill-rule:evenodd;fill:rgb(21.960784%,79.607843%,72.941176%);fill-opacity:1;" d="M 208.332031 86.617188 C 192.417969 95.824219 179.246094 103.589844 179.058594 103.878906 C 178.871094 104.164062 178.765625 135.207031 178.824219 172.867188 C 178.925781 236.125 178.992188 241.371094 179.703125 241.820312 C 180.324219 242.210938 183.644531 240.488281 196.601562 233.074219 L 212.730469 223.84375 L 212.964844 173.640625 L 213.195312 123.441406 L 218.519531 120.304688 C 221.445312 118.578125 224 117.160156 224.191406 117.148438 C 224.621094 117.125 224.640625 161.476562 224.226562 202.121094 L 223.917969 232.640625 L 201.65625 245.144531 L 179.398438 257.648438 L 179.09375 265.050781 C 178.925781 269.121094 178.824219 272.492188 178.867188 272.539062 C 179.054688 272.734375 223.453125 246.777344 224.167969 246.054688 C 224.601562 245.617188 227.414062 243.851562 230.417969 242.132812 L 235.878906 239.011719 L 236.109375 209.949219 L 236.34375 180.890625 L 252.828125 171.347656 C 261.894531 166.097656 275.378906 158.367188 282.789062 154.167969 L 296.261719 146.527344 L 296.28125 124.96875 L 296.296875 103.410156 L 267.523438 86.773438 C 251.699219 77.625 238.417969 70.082031 238.011719 70.011719 C 237.601562 69.941406 224.246094 77.414062 208.332031 86.617188 M 228.171875 89.042969 C 199.695312 105.417969 192.753906 109.460938 192.011719 110.097656 C 191.246094 110.757812 191.207031 113.851562 191.316406 165.699219 C 191.453125 229.125 190.730469 222.390625 196.992188 218.617188 L 200.695312 216.382812 L 200.8125 166.296875 L 200.929688 116.214844 L 202.664062 115.097656 C 208.648438 111.25 237.695312 94.882812 238.199219 95.078125 C 238.535156 95.207031 247 100.042969 257.007812 105.824219 C 267.019531 111.605469 275.855469 116.605469 276.640625 116.9375 C 277.984375 117.496094 278.289062 117.414062 281.511719 115.585938 C 284.542969 113.867188 284.972656 113.460938 285.097656 112.167969 C 285.21875 110.90625 284.992188 110.535156 283.476562 109.554688 C 281.542969 108.300781 241.605469 85.191406 239.414062 84.058594 C 238.066406 83.363281 237.976562 83.402344 228.171875 89.042969 M 236.691406 109.101562 C 236.242188 109.285156 236.109375 112.957031 236.109375 125.269531 C 236.109375 134.035156 236.214844 141.203125 236.34375 141.203125 C 236.847656 141.203125 263.210938 125.78125 263.507812 125.3125 C 263.683594 125.042969 263.644531 124.496094 263.429688 124.097656 C 263.039062 123.390625 238.308594 108.761719 237.621094 108.832031 C 237.425781 108.851562 237.007812 108.972656 236.691406 109.101562 M 261.402344 140.957031 C 248.960938 148.171875 238.179688 154.515625 237.445312 155.058594 L 236.109375 156.046875 L 236.109375 161.355469 C 236.109375 164.277344 236.300781 166.667969 236.53125 166.667969 C 236.761719 166.667969 247.648438 160.445312 260.722656 152.839844 L 284.492188 139.011719 L 284.621094 133.394531 C 284.691406 130.304688 284.589844 127.792969 284.390625 127.808594 C 284.191406 127.824219 273.847656 133.742188 261.402344 140.957031 "/>
<path style=" stroke:none;fill-rule:evenodd;fill:rgb(98.039216%,98.039216%,98.039216%);fill-opacity:1;" d="M 0 250 L 0 500 L 250.117188 499.882812 L 500.230469 499.769531 L 500.347656 249.882812 L 500.464844 0 L 0 0 L 0 250 M 0.230469 250.230469 C 0.230469 387.730469 0.28125 443.914062 0.347656 375.078125 C 0.410156 306.242188 0.410156 193.742188 0.347656 125.078125 C 0.28125 56.414062 0.230469 112.730469 0.230469 250.230469 M 208.332031 86.617188 C 192.417969 95.824219 179.246094 103.589844 179.058594 103.878906 C 178.871094 104.164062 178.765625 135.207031 178.824219 172.867188 C 178.925781 236.125 178.992188 241.371094 179.703125 241.820312 C 180.324219 242.210938 183.644531 240.488281 196.601562 233.074219 L 212.730469 223.84375 L 212.964844 173.640625 L 213.195312 123.441406 L 218.519531 120.304688 C 221.445312 118.578125 224 117.160156 224.191406 117.148438 C 224.621094 117.125 224.640625 161.476562 224.226562 202.121094 L 223.917969 232.640625 L 201.65625 245.144531 L 179.398438 257.648438 L 179.09375 265.050781 C 178.925781 269.121094 178.824219 272.492188 178.867188 272.539062 C 179.054688 272.734375 223.453125 246.777344 224.167969 246.054688 C 224.601562 245.617188 227.414062 243.851562 230.417969 242.132812 L 235.878906 239.011719 L 236.109375 209.949219 L 236.34375 180.890625 L 252.828125 171.347656 C 261.894531 166.097656 275.378906 158.367188 282.789062 154.167969 L 296.261719 146.527344 L 296.28125 124.96875 L 296.296875 103.410156 L 267.523438 86.773438 C 251.699219 77.625 238.417969 70.082031 238.011719 70.011719 C 237.601562 69.941406 224.246094 77.414062 208.332031 86.617188 M 228.171875 89.042969 C 199.695312 105.417969 192.753906 109.460938 192.011719 110.097656 C 191.246094 110.757812 191.207031 113.851562 191.316406 165.699219 C 191.453125 229.125 190.730469 222.390625 196.992188 218.617188 L 200.695312 216.382812 L 200.8125 166.296875 L 200.929688 116.214844 L 202.664062 115.097656 C 208.648438 111.25 237.695312 94.882812 238.199219 95.078125 C 238.535156 95.207031 247 100.042969 257.007812 105.824219 C 267.019531 111.605469 275.855469 116.605469 276.640625 116.9375 C 277.984375 117.496094 278.289062 117.414062 281.511719 115.585938 C 284.542969 113.867188 284.972656 113.460938 285.097656 112.167969 C 285.21875 110.90625 284.992188 110.535156 283.476562 109.554688 C 281.542969 108.300781 241.605469 85.191406 239.414062 84.058594 C 238.066406 83.363281 237.976562 83.402344 228.171875 89.042969 M 236.691406 109.101562 C 236.242188 109.285156 236.109375 112.957031 236.109375 125.269531 C 236.109375 134.035156 236.214844 141.203125 236.34375 141.203125 C 236.847656 141.203125 263.210938 125.78125 263.507812 125.3125 C 263.683594 125.042969 263.644531 124.496094 263.429688 124.097656 C 263.039062 123.390625 238.308594 108.761719 237.621094 108.832031 C 237.425781 108.851562 237.007812 108.972656 236.691406 109.101562 M 261.402344 140.957031 C 248.960938 148.171875 238.179688 154.515625 237.445312 155.058594 L 236.109375 156.046875 L 236.109375 161.355469 C 236.109375 164.277344 236.300781 166.667969 236.53125 166.667969 C 236.761719 166.667969 247.648438 160.445312 260.722656 152.839844 L 284.492188 139.011719 L 284.621094 133.394531 C 284.691406 130.304688 284.589844 127.792969 284.390625 127.808594 C 284.191406 127.824219 273.847656 133.742188 261.402344 140.957031 "/>
</g>
</svg>
